<?xml version="1.0" encoding="utf-8"?>
<!-- Generator: Adobe Illustrator 19.0.0, SVG Export Plug-In . SVG Version: 6.00 Build 0)  -->
<svg version="1.1" id="Layer_1" xmlns="http://www.w3.org/2000/svg" xmlns:xlink="http://www.w3.org/1999/xlink" x="0px" y="0px"
	 viewBox="0 0 67.1 60" style="enable-background:new 0 0 67.1 60;" xml:space="preserve">
<style type="text/css">
	.st0{fill:none;stroke:#000000;stroke-width:2;stroke-miterlimit:10;}
</style>
<path id="XMLID_34_" d="M10,42.7h47.9c3.6,0,6.5,2.9,6.5,6.5v0c0,3.6-2.9,6.5-6.5,6.5H10c-3.6,0-6.5-2.9-6.5-6.5v0
	C3.5,45.6,6.5,42.7,10,42.7z"/>
<path id="XMLID_26_" class="st0" d="M20.8,25.9h24.5c1.8,0,3.3,1.5,3.3,3.3v0c0,1.8-1.5,3.3-3.3,3.3H20.8c-1.8,0-3.3-1.5-3.3-3.3v0
	C17.5,27.4,19,25.9,20.8,25.9z"/>
<path id="XMLID_25_" class="st0" d="M20.8,5.9h24.5c1.8,0,3.3,1.5,3.3,3.3v0c0,1.8-1.5,3.3-3.3,3.3H20.8c-1.8,0-3.3-1.5-3.3-3.3v0
	C17.5,7.4,19,5.9,20.8,5.9z"/>
</svg>
