<?xml version="1.0" encoding="utf-8"?>
<!-- Generator: Adobe Illustrator 19.0.0, SVG Export Plug-In . SVG Version: 6.00 Build 0)  -->
<svg version="1.1" id="Layer_1" xmlns="http://www.w3.org/2000/svg" xmlns:xlink="http://www.w3.org/1999/xlink" x="0px" y="0px"
	 viewBox="0 0 67.1 60" style="enable-background:new 0 0 67.1 60;" xml:space="preserve">
<style type="text/css">
	.st0{fill:none;stroke:#000000;stroke-width:2;stroke-miterlimit:10;}
</style>
<path id="XMLID_27_" d="M9.6,24.2h47.9c3.6,0,6.5,2.9,6.5,6.5v0c0,3.6-2.9,6.5-6.5,6.5H9.6c-3.6,0-6.5-2.9-6.5-6.5v0
	C3.1,27.2,6,24.2,9.6,24.2z"/>
<path id="XMLID_21_" class="st0" d="M21.3,47.4h24.5c1.8,0,3.3,1.5,3.3,3.3v0c0,1.8-1.5,3.3-3.3,3.3H21.3c-1.8,0-3.3-1.5-3.3-3.3v0
	C18,48.9,19.5,47.4,21.3,47.4z"/>
<path id="XMLID_17_" class="st0" d="M21.3,7.4l24.5,0c1.8,0,3.3,1.5,3.3,3.3v0c0,1.8-1.5,3.3-3.3,3.3H21.3c-1.8,0-3.3-1.5-3.3-3.3v0
	C18,8.9,19.5,7.4,21.3,7.4z"/>
</svg>
