<?xml version="1.0" encoding="utf-8"?>
<!-- Generator: Adobe Illustrator 19.0.0, SVG Export Plug-In . SVG Version: 6.00 Build 0)  -->
<svg version="1.1" id="Layer_1" xmlns="http://www.w3.org/2000/svg" xmlns:xlink="http://www.w3.org/1999/xlink" x="0px" y="0px"
	 viewBox="0 0 67.1 60" style="enable-background:new 0 0 67.1 60;" xml:space="preserve">
<style type="text/css">
	.st0{fill:none;stroke:#000000;stroke-width:2;stroke-miterlimit:10;}
</style>
<path id="XMLID_15_" class="st0" d="M21.5,48.2H46c1.8,0,3.3,1.5,3.3,3.3v0c0,1.8-1.5,3.3-3.3,3.3H21.5c-1.8,0-3.3-1.5-3.3-3.3v0
	C18.1,49.7,19.6,48.2,21.5,48.2z"/>
<path id="XMLID_2_" class="st0" d="M21.5,28.2H46c1.8,0,3.3,1.5,3.3,3.3v0c0,1.8-1.5,3.3-3.3,3.3H21.5c-1.8,0-3.3-1.5-3.3-3.3v0
	C18.1,29.7,19.6,28.2,21.5,28.2z"/>
<path id="XMLID_16_" d="M9.2,4.8H57c3.6,0,6.5,2.9,6.5,6.5v0c0,3.6-2.9,6.5-6.5,6.5H9.2c-3.6,0-6.5-2.9-6.5-6.5v0
	C2.7,7.7,5.6,4.8,9.2,4.8z"/>
</svg>
